<svg xmlns="http://www.w3.org/2000/svg" viewBox="0 0 512 512">
  <rect width="512" height="512" rx="96" fill="#1F4E79"/>
  <path d="M160 160 L160 352 L192 352 L192 272 L256 272 L256 240 L192 240 L192 192 L288 192 L288 160 Z" fill="#ffffff"/>
  <path d="M320 160 L320 352 L352 352 L352 272 L384 272 L416 352 L448 352 L416 264 Q448 248 448 208 Q448 160 400 160 Z M352 192 L400 192 Q416 192 416 208 Q416 240 400 240 L352 240 Z" fill="#ffffff"/>
  <circle cx="256" cy="420" r="16" fill="#22c55e"/>
</svg>
